HIERARCHY
ROOT Hip
{
   OFFSET 0.00000 0.00000 0.00000
   CHANNELS 6 Xposition Yposition Zposition Zrotation Yrotation Xrotation
   JOINT Head
   {
      OFFSET 0.000000 19.004801 0.000000
      CHANNELS 3 Zrotation Yrotation Xrotation
      End Site
      {
         OFFSET 0.000000 11.323200 0.000000
      }
      JOINT LeftShoulder
      {
         OFFSET 6.283680 0.000000 0.000000
         CHANNELS 3 Zrotation Yrotation Xrotation
         JOINT LeftHand
         {
            OFFSET 0.000000 -9.182400 0.000000
            CHANNELS 3 Zrotation Yrotation Xrotation
            End Site
            {
               OFFSET 0.000000 -10.056800 0.000000
            }
         }
      }
      JOINT RightShoulder
      {
         OFFSET -6.696960 0.000000 0.000000
         CHANNELS 3 Zrotation Yrotation Xrotation
         JOINT RghtHand
         {
            OFFSET 0.000000 -11.002401 0.000000
            CHANNELS 3 Zrotation Yrotation Xrotation
            End Site
            {
               OFFSET 0.000000 -7.536640 0.000000
            }
         }
      }
   }
   JOINT LeftHip
   {
      OFFSET 6.649040 0.000000 0.000000
      CHANNELS 3 Zrotation Yrotation Xrotation
      JOINT LeftKnee
      {
         OFFSET 0.000000 -18.742399 0.000000
         CHANNELS 3 Zrotation Yrotation Xrotation
         JOINT LeftFoot
         {
            OFFSET 0.000000 -14.290401 0.000000
            CHANNELS 3 Zrotation Yrotation Xrotation
            End Site
            {
               OFFSET 0.000000 0.000000 9.312801
            }
         }
      }
   }
   JOINT RightHip
   {
      OFFSET -6.649040 0.000000 0.000000
      CHANNELS 3 Zrotation Yrotation Xrotation
      JOINT RightKnee
      {
         OFFSET 0.000000 -16.962400 0.000000
         CHANNELS 3 Zrotation Yrotation Xrotation
         JOINT RightFoot
         {
            OFFSET 0.000000 -14.547200 0.000000
            CHANNELS 3 Zrotation Yrotation Xrotation
            End Site
            {
               OFFSET 0.000000 0.000000 9.354400
            }
         }
      }
   }
}
MOTION
Frames: 27
Frame Time: 0.016670
7.777676 76.311349 2.847958 25.412875 25.983761 249.507985 -8.777775 2.693553 18.136698 5.253394 -70.655725 95.065387 65.534238 178.427846 135.871273 -51.968512 -6.918051 27.403173 -80.927947 4.604560 50.564372 -84.165266 -14.163909 86.600269 57.720631 -54.407081 -14.588471 11.227228 -51.730015 -11.766021 -107.277779 -32.044775 87.563681 14.254625 -36.138456 35.449180 -32.081344 -22.862081 40.097339
9.630282 76.213716 1.948292 22.863712 29.815169 249.914354 -9.605621 2.205512 18.542123 6.505693 -65.053331 95.081827 66.755134 180.267475 137.238595 -50.831945 -6.041572 26.786764 -79.822952 3.383724 50.251556 -83.262697 -12.541850 87.435041 53.085979 -55.675782 -15.481273 12.054743 -52.439129 -11.037110 -108.357529 -28.544486 86.998469 12.875115 -35.132963 34.107304 -31.802659 -23.035926 40.015216
11.493763 75.934223 1.033193 20.210391 33.503085 250.188846 -11.061719 1.590305 19.104819 8.113701 -60.630408 95.647742 67.092859 183.045996 140.284258 -49.789770 -5.191405 25.046198 -79.375759 3.004652 50.165680 -81.373235 -10.731119 88.519067 48.795708 -56.494342 -15.946429 13.136398 -52.621454 -9.676342 -109.138459 -24.927564 86.368480 12.175680 -33.676637 32.890885 -31.888739 -22.822123 39.251813
13.426238 75.445269 0.068943 17.502336 37.026121 250.861647 -11.347503 -0.331211 18.115875 8.941206 -54.757418 95.305803 69.847966 183.944330 143.517533 -51.560770 -3.258378 22.965562 -78.326526 1.837440 49.923031 -78.182997 -9.235374 89.238505 44.932683 -57.485474 -15.589415 14.053350 -52.929707 -8.534903 -108.895489 -22.186527 85.267125 10.934257 -32.052391 32.366405 -31.597934 -23.272674 39.358511
15.387640 74.742574 -0.923960 14.644508 41.001100 251.245230 -12.476345 -0.619103 17.341365 10.436549 -52.424984 95.080482 72.970244 184.417826 145.829675 -52.284306 -2.511930 21.960788 -76.471256 -0.289719 50.074589 -75.895115 -7.755581 90.313372 42.086960 -58.181061 -15.438495 14.369842 -53.172521 -8.172319 -108.591450 -19.205001 84.028102 9.792100 -31.053445 32.088222 -30.660149 -23.879187 40.610461
17.401503 73.802046 -1.933390 12.207192 45.705591 251.578625 -14.287506 2.736409 17.603124 11.667699 -57.366008 95.289526 72.235821 187.309182 149.594257 -51.984300 -3.616168 23.722405 -74.135071 -3.272850 51.699693 -74.438332 -6.062443 91.197205 39.987653 -59.029036 -15.487404 14.716568 -53.742408 -7.876157 -107.803806 -15.933289 81.890765 8.893571 -30.698671 32.146398 -28.892735 -24.682340 43.359892
19.438663 72.613863 -2.956638 9.970854 49.881763 253.041215 -14.992436 1.815387 14.573873 11.357882 -53.761819 94.966274 77.519690 186.350647 153.865242 -54.704126 -1.586068 24.011276 -71.837471 -6.044302 52.201158 -73.112517 -5.037157 92.575633 38.958904 -59.019808 -15.468283 15.466928 -53.671244 -6.734932 -105.481091 -14.016042 80.318305 8.163295 -30.228553 31.442393 -26.762409 -25.516163 46.777237
21.474483 71.168555 -4.018772 7.868345 54.359269 254.655407 -15.592883 2.889499 12.274660 11.725723 -51.975451 94.746055 81.329050 185.960916 156.691301 -56.032908 -0.463317 26.054416 -69.612503 -8.639785 53.710702 -70.992754 -4.093614 93.933392 38.174983 -58.675792 -15.266596 17.725647 -53.399706 -3.418570 -101.438903 -12.195881 78.311445 8.484938 -29.482737 30.417797 -25.270773 -26.692255 49.530770
23.486247 69.469160 -5.134178 6.965954 58.797465 257.672629 -16.851059 5.144163 10.470227 12.165575 -51.715354 94.376460 84.069260 185.842235 158.705046 -55.543085 -0.653514 28.159342 -68.322054 -10.006594 55.754004 -70.966888 -3.069292 95.838844 39.176589 -56.904819 -16.263218 20.328448 -52.319075 0.647542 -94.987878 -10.432995 74.996563 9.747710 -29.553590 30.172603 -25.183964 -29.499386 51.098663
25.471370 67.549585 -6.346289 5.692440 62.995115 260.363833 -18.165342 7.272154 9.658761 11.163057 -53.153499 93.167516 85.319581 185.925781 160.697002 -54.558612 -2.110504 29.435052 -67.268498 -11.174841 58.130743 -68.848198 -2.649237 96.513722 39.053820 -57.006586 -15.816194 21.476693 -52.585435 2.232769 -84.578144 -7.864577 70.675287 10.337559 -30.988975 30.758855 -25.498662 -33.839646 53.024114
27.396073 65.398802 -7.625513 6.803997 67.074356 265.667448 -20.065219 8.173993 7.318934 13.255015 -50.003210 94.659025 88.238859 185.551023 161.469729 -52.875244 -2.496540 29.601681 -67.427539 -10.654218 58.841964 -64.402906 -2.775485 94.760433 36.806090 -59.961281 -13.977192 23.462531 -55.285556 4.277399 -75.317684 -4.521172 67.879581 14.373529 -34.407559 28.096036 -27.148233 -37.106085 52.385133
29.308211 62.952274 -8.977996 10.174080 71.116893 273.754993 -21.929613 9.355436 4.685935 13.852717 -49.965801 94.584111 90.038197 185.637725 163.350927 -52.493829 -2.837808 29.897548 -67.450427 -10.302821 60.045976 -63.236869 -2.990313 94.042928 35.829502 -61.469729 -14.243364 26.605028 -57.212601 8.100855 -64.515740 0.543488 65.222624 20.250329 -40.288161 23.236341 -27.421217 -39.150709 53.087563
31.157164 60.258817 -10.313248 14.862657 74.930071 283.563937 -23.944160 10.772436 1.576951 14.101582 -53.086518 94.670301 90.412157 186.012798 165.789714 -51.996632 -3.430328 31.516132 -66.618769 -11.167592 61.719625 -61.678070 -4.060378 93.678742 33.866212 -63.634140 -14.827173 30.977654 -59.979361 13.426815 -53.250146 5.423072 64.562882 27.075688 -48.155863 14.367754 -27.165481 -40.205478 54.054175
31.256754 57.140144 -11.133114 11.958450 74.524372 285.169769 -21.789400 12.509855 -2.661172 12.507929 -56.058255 92.443496 95.323875 191.320483 166.853790 -48.469669 -0.823945 34.916371 -65.355410 -17.835379 63.947366 -62.076564 -5.805173 94.345034 34.217759 -66.494282 -14.870365 31.013802 -64.062448 13.815930 -41.741803 6.606572 61.177608 30.529702 -65.476372 9.411663 -22.180505 -44.793094 52.853141
32.849152 54.068302 -12.555100 17.563008 78.056467 296.314479 -23.658495 13.782350 -7.024466 12.841606 -60.070448 93.335881 96.286481 191.405779 169.534762 -50.765617 1.236161 39.402460 -61.393429 -25.402925 67.235098 -60.783868 -8.289010 92.689751 32.835725 -68.389557 -15.993349 31.044330 -65.800410 13.698856 -32.739863 7.856146 59.664865 37.633331 -68.640724 -3.383494 -21.515653 -44.149441 53.518340
34.306893 50.758771 -13.959418 26.390528 81.799022 311.322782 -26.637811 14.040517 -10.562298 13.562101 -65.044718 94.540719 96.923840 191.506879 171.787563 -46.961946 3.934179 43.070726 -58.428901 -31.425881 69.323258 -61.395211 -11.633034 91.491893 33.200600 -69.105518 -17.974679 30.844171 -66.838339 13.387925 -25.952523 7.639853 58.070828 44.351847 -67.517540 -15.734794 -20.543464 -44.723727 55.337151
35.673873 47.203535 -15.351667 198.820455 95.327113 130.828517 -21.117709 7.662341 -14.045816 9.115092 -55.943781 92.022046 104.123222 191.632377 178.267637 -46.666800 13.091080 38.222708 -60.258661 -26.894852 67.720308 -62.569532 -15.326046 92.206625 36.645478 -66.145014 -19.250490 29.872372 -64.585497 12.509978 -19.514807 3.273369 55.501772 44.455499 -65.784646 -23.126232 -18.226887 -44.497658 58.479711
36.957859 43.494314 -16.757545 6.759615 90.523024 305.331176 -20.686751 1.868433 -15.904898 7.147688 -54.295516 91.949017 107.436813 191.981577 182.934186 -40.141469 18.916340 33.255296 -66.550187 -13.087922 64.072290 -63.338824 -19.661755 92.665463 41.214898 -62.350563 -20.209083 29.486323 -61.889908 12.262286 -17.033947 -1.217734 53.689320 46.510877 -62.595016 -29.667210 -16.775891 -44.825227 60.829754
38.219532 39.871702 -18.236935 21.433195 98.325429 325.603478 -17.242213 -4.365500 -18.295251 2.588607 -51.052905 90.333336 110.613691 192.441058 189.366353 -41.916611 26.645977 33.987838 -69.289920 -9.002346 57.646667 -67.955212 -23.694773 94.737551 49.101209 -59.448423 -18.464206 20.743382 -58.604867 1.624732 -16.912829 -8.942285 51.815943 46.761189 -59.015771 -32.047750 -21.262615 -45.019235 56.302346
39.523327 36.396007 -19.702476 -1.924762 101.251093 305.801776 -21.423184 0.433763 -19.260618 2.900710 -59.055598 91.988872 110.773326 192.241589 192.304222 -40.003438 29.114320 41.481518 -71.283399 -6.729880 55.338814 -74.129395 -25.580570 91.727637 52.948139 -58.652296 -16.290187 10.344319 -57.374231 -11.685713 -22.078160 -10.765232 46.644311 48.994432 -54.671399 -28.180220 -40.469936 -49.615485 35.337456
41.001791 33.423023 -21.230580 -4.138203 105.590449 306.216669 -20.761326 2.681401 -16.668566 0.370124 -63.641367 90.152029 111.584384 192.207151 195.051666 -43.199765 34.278315 49.598471 -69.604593 -10.162738 54.975933 -82.865535 -20.152545 93.391779 63.209911 -59.070611 -9.899165 3.544586 -58.382804 -21.450151 -30.098444 -10.087277 49.592317 58.131706 -47.416505 -27.830072 -51.542916 -54.026226 23.407203
42.525291 32.007677 -22.629988 0.964279 111.324058 309.986442 -18.744944 1.498593 -9.282646 -4.050551 -67.543222 86.047570 112.504786 192.215470 197.957624 -43.728596 37.251582 55.183991 -68.509031 -12.363219 55.171505 -89.875891 -10.799540 97.045520 70.513090 -59.961746 -4.116668 3.466786 -59.123723 -22.906419 -41.133414 -6.418235 61.767060 70.235511 -38.712290 -28.126483 -53.167070 -51.321782 21.489623
43.951382 30.700960 -24.007551 2.259569 115.289099 309.158513 -16.570553 2.342140 -0.675869 -8.374553 -75.341604 81.228769 110.247381 191.003494 199.238694 -41.909747 38.030234 60.570104 -67.544369 -13.680283 56.695864 -94.481966 -0.704369 97.753305 76.154444 -61.521085 0.597828 4.473100 -60.003082 -23.184099 -48.256895 0.596107 70.554126 78.869069 -33.357824 -26.845749 -53.742059 -49.342523 21.132363
44.987702 29.690389 -25.278763 2.375518 118.078903 308.263813 -15.029888 3.174060 3.686661 -12.254458 -80.045015 77.566572 109.884077 190.551910 202.258294 -39.417466 36.168130 65.694740 -67.587495 -13.682315 57.233444 -96.767450 4.805433 97.195579 78.663603 -62.940740 2.636691 4.701031 -60.581947 -24.348325 -51.919693 5.744152 74.401927 82.949820 -31.808351 -26.089427 -54.318910 -49.740180 21.148040
45.860495 28.943526 -26.287076 2.410225 119.934270 308.287254 -13.678816 4.044828 5.702051 -14.775243 -83.109585 75.182740 110.323989 190.627083 204.543211 -37.792065 33.440862 69.729230 -68.062473 -13.442047 57.894958 -96.333582 6.049814 96.172103 78.554006 -64.337964 3.183464 3.901184 -61.907489 -27.034626 -52.673825 9.312228 75.913898 85.406400 -31.913536 -26.101954 -54.720474 -51.156433 21.244074
46.688008 28.538823 -27.088918 3.362663 121.662376 309.562724 -12.443892 3.848174 7.032670 -16.230001 -84.746747 73.764424 111.227390 191.107750 205.700736 -37.193843 31.322503 72.941079 -67.818615 -14.788464 58.417392 -95.576360 7.330188 96.097476 79.246949 -65.125656 3.731514 4.037152 -62.131984 -27.865997 -52.405852 11.895956 77.971213 87.042681 -31.795524 -26.472497 -53.966571 -50.867554 22.403301
47.483391 28.493924 -27.859571 3.073894 122.377210 309.562888 -11.223841 3.982927 8.588434 -17.092559 -85.563528 72.877770 112.202714 191.761003 205.705053 -37.412788 30.136062 75.527918 -67.121758 -16.908678 59.098608 -95.147465 9.321564 95.435583 80.044121 -65.436525 3.297982 5.485202 -61.130377 -26.575347 -51.262673 14.424924 79.104567 87.614170 -32.074780 -27.498999 -53.009071 -50.458115 23.747545
